# xmcd
#
# Track frame offsets: 
#        150
#        13365
#        26927
#        44377
#        58192
#        77782
#        91737
#        104930
#        119730
#        133257
#        147642
#        160987
#        174522
#        191145
#        206202
#
# Disc length: 2949 seconds
#
# Revision: 5
# Processed by: cddbd v1.5.1PL0 Copyright (c) Steve Scherf et al.
# Submitted via: ExactAudioCopy v0.95a5
#
DISCID=f30b830f
DTITLE=John Lee Hooker - The Complete 50's Chess Recordings, Disc 2
DYEAR=1900
DGENRE=Blues
TTITLE0=Walkin' The Boogie
TTITLE1=Love Blues
TTITLE2=Lonely Boy Boogie
TTITLE3=Apologize
TTITLE4=The Journey
TTITLE5=Worried Life Blues
TTITLE6=Down At The Landing
TTITLE7=You Have Two Hearts
TTITLE8=It's My Own Fault
TTITLE9=Blues For Big Town
TTITLE10=Women And Money
TTITLE11=Big Fine Woman
TTITLE12=Tell Me Baby
TTITLE13=Blues for Christmas
TTITLE14=Cry Baby Cry
EXTD=
EXTT0=
EXTT1=
EXTT2=
EXTT3=
EXTT4=
EXTT5=
EXTT6=
EXTT7=
EXTT8=
EXTT9=
EXTT10=
EXTT11=
EXTT12=
EXTT13=
EXTT14=
PLAYORDER=
